<svg width="48" height="16" viewBox="0 0 48 16" fill="none" xmlns="http://www.w3.org/2000/svg">
<path fill-rule="evenodd" clip-rule="evenodd" d="M5.61254 15.7109C3.47565 15.7109 0.800049 14.4644 0.800049 11.6282V7.36502C0.800049 4.52878 3.47565 3.28253 5.61254 3.28253C7.8396 3.28253 10.0483 4.42091 10.2812 6.71462C10.2812 7.14826 10.1376 7.23856 9.72485 7.23856H8.00096C7.6235 7.23856 7.60563 6.89543 7.46204 6.67846C7.0853 6.08271 6.58192 5.81191 5.61254 5.81191C4.42757 5.81191 3.61955 6.47998 3.61955 7.61795V11.3753C3.61955 12.5316 4.42757 13.1812 5.61254 13.1812C6.58192 13.1812 7.3544 12.8205 7.49809 11.9531C7.55222 11.5926 7.58796 11.3029 7.98238 11.3029H9.74313C10.1376 11.3029 10.2812 11.4838 10.2812 11.9171C10.2812 14.2475 7.8396 15.7109 5.61254 15.7109Z" fill="#161516"/>
<path fill-rule="evenodd" clip-rule="evenodd" d="M22.5997 11.9712C22.5997 14.2654 20.822 15.4396 18.3256 15.4396H13.0465C12.6335 15.4396 12.5259 15.2407 12.5259 14.9155V4.05966C12.5259 3.73441 12.6335 3.53552 13.0465 3.53552H18.0744C21.0018 3.53552 22.2586 5.10712 22.2586 6.8054C22.2586 8.62952 21.1089 9.2078 20.9475 9.27961C21.0911 9.33406 22.5997 10.0204 22.5997 11.9712ZM19.7442 11.7003C19.7442 10.8513 19.1157 10.5986 18.2541 10.5986H17.8411C17.4281 10.5986 17.3199 10.3997 17.3199 10.0749V8.70174C17.3199 8.37639 17.4281 8.17821 17.8411 8.17821H18.0744C19.1157 8.17821 19.565 7.79882 19.565 7.09418C19.565 6.28136 19.008 6.08278 18.0744 6.08278H15.3451V12.875H18.3618C19.2416 12.875 19.7442 12.5131 19.7442 11.7003Z" fill="#5A6770"/>
<path fill-rule="evenodd" clip-rule="evenodd" d="M34.1457 4.05961L30.4466 10.978V14.9154C30.4466 15.3312 30.2486 15.4395 29.9256 15.4395H28.1294C27.7883 15.4395 27.6089 15.3312 27.6089 14.9154V10.978L23.7659 4.05961C23.6759 3.86051 23.7126 3.55365 24.0532 3.55365H26.1186C26.5313 3.55365 26.711 3.60748 26.9624 4.09556L29.0639 7.97927L31.0929 4.09556C31.3258 3.60748 31.5057 3.55365 31.9189 3.55365H33.8584C34.1985 3.55365 34.235 3.86051 34.1457 4.05961Z" fill="#5A6770"/>
<path fill-rule="evenodd" clip-rule="evenodd" d="M45.5472 14.8617L41.6867 8.46677L44.5676 5.39292C44.5676 5.39292 44.5671 5.39221 44.5666 5.39221H44.5676L44.5671 3.53632H42.6681L42.6672 3.53744V3.53632C42.6259 3.57718 38.5081 8.10586 38.5081 8.10586V4.07762C38.5081 3.66237 38.3107 3.55378 38.0061 3.55378H36.2277C35.8863 3.55378 35.7073 3.66237 35.7073 4.07762V14.9155C35.7073 15.3314 35.8863 15.4396 36.2277 15.4396H38.0061C38.3107 15.4396 38.5081 15.3314 38.5081 14.9155V11.7004L39.6217 10.5262C40.5917 12.1521 42.1895 14.8617 42.1895 14.8617C42.4225 15.2407 42.6564 15.4396 43.0869 15.4396H45.2782C45.6194 15.4396 45.6909 15.0963 45.5472 14.8617Z" fill="#161516"/>
<path fill-rule="evenodd" clip-rule="evenodd" d="M47.1107 5.80807H45.8403V2.25952H42.3125V0.981812H47.1107V5.80807Z" fill="#D4441C"/>
</svg>
