<svg width="73" height="24" viewBox="0 0 73 24" fill="none" xmlns="http://www.w3.org/2000/svg">
<path fill-rule="evenodd" clip-rule="evenodd" d="M7.586 23.2177C4.21759 23.2177 0 21.2527 0 16.7821L0 10.0619C0 5.59113 4.21759 3.62665 7.586 3.62665C11.0966 3.62665 14.5781 5.42109 14.9453 9.03671C14.9453 9.72025 14.719 9.86259 14.0683 9.86259H11.3509C10.7559 9.86259 10.7277 9.32172 10.5014 8.9797C9.90753 8.04062 9.11405 7.61374 7.586 7.61374C5.71811 7.61374 4.44442 8.66683 4.44442 10.4606V16.3834C4.44442 18.2062 5.71811 19.2301 7.586 19.2301C9.11405 19.2301 10.3317 18.6615 10.5582 17.2941C10.6435 16.7259 10.6999 16.2692 11.3216 16.2692H14.0971C14.719 16.2692 14.9453 16.5544 14.9453 17.2375C14.9453 20.9109 11.0966 23.2177 7.586 23.2177Z" fill="white"/>
<path fill-rule="evenodd" clip-rule="evenodd" d="M34.3633 17.3228C34.3633 20.9392 31.561 22.79 27.626 22.79H19.3045C18.6534 22.79 18.4838 22.4765 18.4838 21.964V4.85172C18.4838 4.33902 18.6534 4.02551 19.3045 4.02551H27.23C31.8445 4.02551 33.8256 6.50285 33.8256 9.17986C33.8256 12.0553 32.0133 12.9668 31.7589 13.08C31.9852 13.1658 34.3633 14.2477 34.3633 17.3228ZM29.862 16.8958C29.862 15.5575 28.8714 15.1591 27.5133 15.1591H26.8623C26.2113 15.1591 26.0406 14.8456 26.0406 14.3336V12.1691C26.0406 11.6562 26.2113 11.3439 26.8623 11.3439H27.23C28.8714 11.3439 29.5797 10.7458 29.5797 9.63508C29.5797 8.35382 28.7017 8.04079 27.23 8.04079H22.9277V18.7475H27.683C29.0698 18.7475 29.862 18.177 29.862 16.8958Z" fill="white"/>
<path fill-rule="evenodd" clip-rule="evenodd" d="M52.5635 4.85163L46.7326 15.7572V21.9637C46.7326 22.6192 46.4204 22.7899 45.9114 22.7899H43.08C42.5424 22.7899 42.2595 22.6192 42.2595 21.9637V15.7572L36.2017 4.85163C36.0599 4.53779 36.1177 4.05408 36.6546 4.05408H39.9103C40.5608 4.05408 40.8442 4.13894 41.2405 4.90831L44.553 11.0302L47.7514 4.90831C48.1185 4.13894 48.4021 4.05408 49.0535 4.05408H52.1107C52.6468 4.05408 52.7044 4.53779 52.5635 4.85163Z" fill="white"/>
<path fill-rule="evenodd" clip-rule="evenodd" d="M70.5359 21.879L64.4504 11.7987L68.9917 6.95333C68.9917 6.95333 68.9909 6.9522 68.9901 6.9522H68.9917L68.9909 4.02673H65.9975L65.9961 4.0285V4.02673C65.9309 4.09114 59.44 11.2298 59.44 11.2298V4.88C59.44 4.22544 59.1288 4.05427 58.6487 4.05427H55.8454C55.3072 4.05427 55.025 4.22544 55.025 4.88V21.9639C55.025 22.6194 55.3072 22.7901 55.8454 22.7901H58.6487C59.1288 22.7901 59.44 22.6194 59.44 21.9639V16.8959L61.1953 15.0451C62.7244 17.6079 65.2431 21.879 65.2431 21.879C65.6103 22.4766 65.9791 22.7901 66.6577 22.7901H70.1119C70.6497 22.7901 70.7624 22.2489 70.5359 21.879Z" fill="white"/>
<path fill-rule="evenodd" clip-rule="evenodd" d="M73.0002 7.6077H70.9977V2.01408H65.4368V0H73.0002V7.6077Z" fill="#D4441C"/>
</svg>
