<svg width="32" height="32" viewBox="0 0 32 32" fill="none" xmlns="http://www.w3.org/2000/svg">
<path d="M3.5 31.5501C2.675 31.5501 1.9685 31.2561 1.3805 30.6681C0.7935 30.0811 0.5 29.3751 0.5 28.5501L0.5 7.55007C0.5 6.72507 0.7935 6.01857 1.3805 5.43057C1.9685 4.84357 2.675 4.55007 3.5 4.55007L16.8875 4.55007L13.8875 7.55007L3.5 7.55007L3.5 28.5501L24.5 28.5501V18.1251L27.5 15.1251V28.5501C27.5 29.3751 27.2065 30.0811 26.6195 30.6681C26.0315 31.2561 25.325 31.5501 24.5 31.5501L3.5 31.5501ZM20.2625 5.41257L22.4 7.51257L12.5 17.4126V19.5501H14.6L24.5375 9.61257L26.675 11.7126L15.875 22.5501L9.5 22.5501L9.5 16.1751L20.2625 5.41257ZM26.675 11.7126L20.2625 5.41257L24.0125 1.66257C24.6125 1.06257 25.3315 0.762573 26.1695 0.762573C27.0065 0.762573 27.7125 1.06257 28.2875 1.66257L30.3875 3.80007C30.9625 4.37507 31.25 5.07507 31.25 5.90007C31.25 6.72507 30.9625 7.42507 30.3875 8.00007L26.675 11.7126Z" fill="black"/>
</svg>
