<?xml version="1.0" standalone="no"?>
<!DOCTYPE svg PUBLIC "-//W3C//DTD SVG 20010904//EN"
 "http://www.w3.org/TR/2001/REC-SVG-20010904/DTD/svg10.dtd">
<svg version="1.0" xmlns="http://www.w3.org/2000/svg"
 width="256.000000pt" height="256.000000pt" viewBox="0 0 256.000000 256.000000"
 preserveAspectRatio="xMidYMid meet">

<g transform="translate(0.000000,256.000000) scale(0.100000,-0.100000)"
fill="#000000" stroke="none">
<path d="M1 2443 l0 -118 20 52 c24 63 108 144 171 166 43 15 43 15 -74 16
l-118 1 1 -117z"/>
<path d="M1608 2545 c87 -27 156 -95 188 -182 10 -29 13 -125 14 -424 l0 -385
-77 -12 c-43 -7 -102 -24 -131 -38 -105 -51 -134 -90 -422 -559 l-270 -440 0
-92 0 -93 -333 0 c-393 0 -400 1 -488 89 -35 35 -62 73 -72 101 -15 43 -15 34
-16 -232 l-1 -278 895 0 895 0 0 104 0 104 -30 7 c-43 9 -80 58 -80 105 0 47
37 96 80 105 23 5 30 12 30 31 0 14 -6 24 -15 24 -28 0 -67 24 -81 51 -10 20
-14 66 -14 168 0 135 1 141 25 169 14 17 39 33 55 37 l30 7 0 209 c0 239 -5
229 87 183 62 -30 36 8 391 -571 150 -243 276 -459 281 -480 6 -23 9 416 10
1135 l1 1172 -497 -1 c-434 0 -492 -2 -455 -14z"/>
<path d="M2550 173 c0 -63 -77 -145 -154 -163 -21 -6 0 -8 67 -9 l97 -1 0 100
c0 55 -2 100 -5 100 -3 0 -5 -12 -5 -27z"/>
</g>
</svg>
