<svg width="24" height="24" viewBox="0 0 24 24" fill="none" xmlns="http://www.w3.org/2000/svg">
<path d="M12.2117 1.97327C9.48398 1.97327 6.86796 3.05686 4.93915 4.98566C3.01035 6.91447 1.92676 9.53049 1.92676 12.2582C1.92676 14.986 3.01035 17.602 4.93915 19.5308C6.86796 21.4596 9.48398 22.5432 12.2117 22.5432C14.9395 22.5432 17.5555 21.4596 19.4843 19.5308C21.4131 17.602 22.4967 14.986 22.4967 12.2582C22.4967 9.53049 21.4131 6.91447 19.4843 4.98566C17.5555 3.05686 14.9395 1.97327 12.2117 1.97327V1.97327ZM3.19524 13.0353H6.0636C6.10931 14.0752 6.25444 15.1083 6.49785 16.1208H4.02946C3.56916 15.1504 3.28661 14.1054 3.19524 13.0353ZM12.9888 6.86434V3.33317C14.0901 3.75168 14.995 4.56693 15.5258 5.61871C15.76 6.01526 15.9669 6.4278 16.1429 6.85291L12.9888 6.86434ZM16.6685 8.40708C16.9337 9.41615 17.0914 10.4504 17.1371 11.4926H12.9888V8.40708H16.6685ZM11.4346 3.33317V6.86434H8.28058C8.45686 6.43888 8.66308 6.02645 8.89767 5.63014C9.42617 4.57405 10.3314 3.75446 11.4346 3.33317ZM11.4346 8.40708V11.4926H7.29779C7.3435 10.4504 7.50121 9.41615 7.76633 8.40708H11.4346ZM6.0636 11.4811H3.19524C3.28661 10.411 3.56916 9.366 4.02946 8.39565H6.49785C6.25397 9.40774 6.10855 10.441 6.0636 11.4811ZM7.29779 13.0353H11.4346V16.1208H7.76633C7.50125 15.1118 7.34419 14.0775 7.29779 13.0353ZM11.4461 17.6064V21.1376C10.3448 20.7191 9.43986 19.9038 8.9091 18.852C8.67451 18.4557 8.46829 18.0433 8.29201 17.6178L11.4461 17.6064ZM12.9888 21.1376V17.6635H16.1429C15.9666 18.089 15.7604 18.5014 15.5258 18.8977C14.995 19.9495 14.0901 20.7648 12.9888 21.1833V21.1376ZM12.9888 16.0637V12.9782H17.1256C17.0792 14.0204 16.9222 15.0547 16.6571 16.0637H12.9888ZM18.3713 12.9782H21.2396C21.1483 14.0483 20.8657 15.0933 20.4054 16.0637H17.9256C18.1656 15.0694 18.3107 14.0558 18.3598 13.0353L18.3713 12.9782ZM18.3713 11.4354C18.3189 10.4141 18.1697 9.40014 17.9256 8.40708H20.394C20.8545 9.37844 21.1368 10.4229 21.2282 11.4926L18.3713 11.4354ZM19.514 6.86434H17.4685C17.0984 5.82476 16.5619 4.85217 15.88 3.98455C17.3021 4.62288 18.5373 5.6142 19.4683 6.86434H19.514ZM8.54342 3.98455C7.86154 4.85217 7.32508 5.82476 6.95496 6.86434H4.95511C5.88615 5.6142 7.12137 4.62288 8.54342 3.98455ZM4.94368 17.6978H6.95496C7.32508 18.7374 7.86154 19.71 8.54342 20.5776C7.11743 19.9297 5.88183 18.9262 4.95511 17.6635L4.94368 17.6978ZM15.8686 20.5776C16.5505 19.71 17.0869 18.7374 17.457 17.6978H19.4683C18.5316 18.9312 17.2969 19.9064 15.88 20.5319L15.8686 20.5776Z" fill="#D4441C"/>
</svg>
