<svg width="19" height="18" viewBox="0 0 19 18" fill="none" xmlns="http://www.w3.org/2000/svg">
<path d="M3.96842 2.59198C3.96817 3.09711 3.76726 3.58146 3.4099 3.93847C3.05254 4.29548 2.56799 4.4959 2.06285 4.49565C1.55771 4.49539 1.07336 4.29449 0.716357 3.93712C0.35935 3.57976 0.158927 3.09521 0.15918 2.59007C0.159432 2.08493 0.36034 1.60059 0.717704 1.24358C1.07507 0.886572 1.55962 0.686149 2.06475 0.686402C2.56989 0.686654 3.05424 0.887561 3.41125 1.24493C3.76825 1.60229 3.96868 2.08684 3.96842 2.59198ZM4.02556 5.90602H0.216319V17.829H4.02556V5.90602ZM10.0442 5.90602H6.25397V17.829H10.0061V11.5723C10.0061 8.08681 14.5486 7.76302 14.5486 11.5723V17.829H18.3102V10.2771C18.3102 4.40137 11.5869 4.6204 10.0061 7.5059L10.0442 5.90602Z" fill="#D4441C"/>
</svg>
