<svg width="25" height="26" viewBox="0 0 25 26" fill="none" xmlns="http://www.w3.org/2000/svg">
<g clip-path="url(#clip0_27_87)">
<path d="M15.3658 5.40164C15.7636 5.40164 16.1451 5.56718 16.4264 5.86186C16.7077 6.15654 16.8657 6.55621 16.8657 6.97295V19.5435C16.8657 19.9602 16.7077 20.3599 16.4264 20.6545C16.1451 20.9492 15.7636 21.1148 15.3658 21.1148H9.36623C8.96844 21.1148 8.58694 20.9492 8.30565 20.6545C8.02437 20.3599 7.86634 19.9602 7.86634 19.5435V6.97295C7.86634 6.55621 8.02437 6.15654 8.30565 5.86186C8.58694 5.56718 8.96844 5.40164 9.36623 5.40164H15.3658ZM9.36623 3.83032C8.57064 3.83032 7.80764 4.16142 7.24507 4.75078C6.6825 5.34013 6.36646 6.13947 6.36646 6.97295V19.5435C6.36646 20.3769 6.6825 21.1763 7.24507 21.7656C7.80764 22.355 8.57064 22.6861 9.36623 22.6861H15.3658C16.1614 22.6861 16.9244 22.355 17.487 21.7656C18.0495 21.1763 18.3656 20.3769 18.3656 19.5435V6.97295C18.3656 6.13947 18.0495 5.34013 17.487 4.75078C16.9244 4.16142 16.1614 3.83032 15.3658 3.83032H9.36623Z" fill="#D4441C"/>
<path d="M12.3661 19.5434C12.7639 19.5434 13.1454 19.3779 13.4267 19.0832C13.7079 18.7885 13.866 18.3888 13.866 17.9721C13.866 17.5554 13.7079 17.1557 13.4267 16.861C13.1454 16.5663 12.7639 16.4008 12.3661 16.4008C11.9683 16.4008 11.5868 16.5663 11.3055 16.861C11.0242 17.1557 10.8662 17.5554 10.8662 17.9721C10.8662 18.3888 11.0242 18.7885 11.3055 19.0832C11.5868 19.3779 11.9683 19.5434 12.3661 19.5434ZM2.76528 7.06405C2.85236 7.11231 2.9295 7.17808 2.99231 7.25759C3.05512 7.3371 3.10236 7.4288 3.13133 7.52744C3.1603 7.62608 3.17044 7.72974 3.16116 7.83248C3.15188 7.93523 3.12337 8.03505 3.07726 8.12626C2.27968 9.70762 1.8641 11.4696 1.86685 13.2582C1.86685 15.1123 2.30481 16.8596 3.07726 18.3901C3.17034 18.5743 3.18977 18.7897 3.13126 18.9889C3.07275 19.1881 2.94111 19.3548 2.76528 19.4523C2.58945 19.5498 2.38385 19.5701 2.1937 19.5089C2.00356 19.4476 1.84444 19.3096 1.75135 19.1254C0.839457 17.3175 0.364142 15.303 0.366956 13.2582C0.366956 11.1416 0.867919 9.14289 1.75135 7.39088C1.79743 7.29966 1.8602 7.21884 1.9361 7.15304C2.012 7.08724 2.09952 7.03775 2.19368 7.0074C2.28784 6.97705 2.38678 6.96643 2.48486 6.97615C2.58294 6.98587 2.67822 7.01574 2.76528 7.06405ZM21.9669 7.06405C22.0539 7.01574 22.1492 6.98587 22.2473 6.97615C22.3454 6.96643 22.4443 6.97705 22.5385 7.0074C22.6326 7.03775 22.7202 7.08724 22.7961 7.15304C22.8719 7.21884 22.9347 7.29966 22.9808 7.39088C23.8928 9.19884 24.3681 11.2133 24.3652 13.2582C24.3681 15.303 23.8928 17.3175 22.9808 19.1254C22.8877 19.3096 22.7286 19.4476 22.5384 19.5089C22.3483 19.5701 22.1427 19.5498 21.9669 19.4523C21.791 19.3548 21.6594 19.1881 21.6009 18.9889C21.5424 18.7897 21.5618 18.5743 21.6549 18.3901C22.4525 16.8087 22.8681 15.0467 22.8653 13.2582C22.8653 11.404 22.4273 9.65671 21.6549 8.12626C21.6088 8.03505 21.5803 7.93523 21.571 7.83248C21.5617 7.72974 21.5718 7.62608 21.6008 7.52744C21.6298 7.4288 21.677 7.3371 21.7398 7.25759C21.8026 7.17808 21.8798 7.11231 21.9669 7.06405ZM4.95212 9.38331C5.04394 9.42081 5.12781 9.47691 5.19892 9.5484C5.27003 9.61988 5.327 9.70535 5.36656 9.79992C5.40612 9.89448 5.4275 9.99629 5.42948 10.0995C5.43146 10.2027 5.41399 10.3054 5.37809 10.4015C5.03902 11.312 4.86555 12.2809 4.86663 13.2582C4.86663 14.2669 5.04661 15.2302 5.37659 16.1148C5.41844 16.2119 5.441 16.3169 5.4429 16.4235C5.4448 16.53 5.42599 16.6358 5.38763 16.7345C5.34926 16.8332 5.29213 16.9226 5.21972 16.9975C5.14732 17.0723 5.06113 17.1309 4.96642 17.1697C4.87171 17.2086 4.77045 17.2268 4.6688 17.2234C4.56715 17.2199 4.46722 17.1948 4.37511 17.1497C4.283 17.1045 4.20062 17.0402 4.13299 16.9606C4.06536 16.881 4.01388 16.7878 3.98169 16.6868C3.57442 15.5941 3.36585 14.4312 3.36674 13.2582C3.36674 12.0498 3.58422 10.8933 3.98169 9.82956C4.05401 9.63567 4.19683 9.47977 4.37878 9.3961C4.56073 9.31243 4.76693 9.30783 4.95212 9.38331ZM19.78 9.38331C19.8718 9.34569 19.9698 9.3274 20.0683 9.32947C20.1668 9.33154 20.264 9.35394 20.3543 9.39539C20.4446 9.43683 20.5261 9.49651 20.5944 9.57101C20.6626 9.64551 20.7162 9.73336 20.752 9.82956C21.1479 10.8933 21.3654 12.0498 21.3654 13.2582C21.3654 14.4665 21.1479 15.623 20.7505 16.6868C20.6713 16.8704 20.5279 17.0151 20.3499 17.0911C20.1718 17.1671 19.9727 17.1685 19.7936 17.0951C19.6146 17.0217 19.4693 16.879 19.3878 16.6966C19.3062 16.5141 19.2947 16.3059 19.3556 16.1148C19.6855 15.2302 19.8655 14.2669 19.8655 13.2582C19.8655 12.2494 19.6855 11.2862 19.3556 10.4015C19.283 10.2075 19.2869 9.99127 19.3665 9.80031C19.4461 9.60936 19.5949 9.45936 19.78 9.38331Z" fill="#D4441C"/>
</g>
<defs>
<clipPath id="clip0_27_87">
<rect width="23.9982" height="25.141" fill="white" transform="translate(0.366943 0.687622)"/>
</clipPath>
</defs>
</svg>
