<svg width="31" height="31" viewBox="0 0 31 31" fill="none" xmlns="http://www.w3.org/2000/svg">
<path d="M9.86364 28.1818H4.22727C3.85356 28.1818 3.49515 28.0334 3.23089 27.7691C2.96664 27.5049 2.81818 27.1464 2.81818 26.7727V21.1364C2.81818 20.7626 2.66972 20.4042 2.40547 20.14C2.14121 19.8757 1.7828 19.7273 1.40909 19.7273C1.03538 19.7273 0.676969 19.8757 0.412713 20.14C0.148457 20.4042 0 20.7626 0 21.1364V26.7727C0 27.8939 0.445372 28.9691 1.23814 29.7619C2.03091 30.5546 3.10613 31 4.22727 31H9.86364C10.2374 31 10.5958 30.8515 10.86 30.5873C11.1243 30.323 11.2727 29.9646 11.2727 29.5909C11.2727 29.2172 11.1243 28.8588 10.86 28.5945C10.5958 28.3303 10.2374 28.1818 9.86364 28.1818ZM29.5909 19.7273C29.2172 19.7273 28.8588 19.8757 28.5945 20.14C28.3303 20.4042 28.1818 20.7626 28.1818 21.1364V26.7727C28.1818 27.1464 28.0334 27.5049 27.7691 27.7691C27.5049 28.0334 27.1464 28.1818 26.7727 28.1818H21.1364C20.7626 28.1818 20.4042 28.3303 20.14 28.5945C19.8757 28.8588 19.7273 29.2172 19.7273 29.5909C19.7273 29.9646 19.8757 30.323 20.14 30.5873C20.4042 30.8515 20.7626 31 21.1364 31H26.7727C27.8939 31 28.9691 30.5546 29.7619 29.7619C30.5546 28.9691 31 27.8939 31 26.7727V21.1364C31 20.7626 30.8515 20.4042 30.5873 20.14C30.323 19.8757 29.9646 19.7273 29.5909 19.7273ZM26.7727 0H21.1364C20.7626 0 20.4042 0.148457 20.14 0.412713C19.8757 0.676969 19.7273 1.03538 19.7273 1.40909C19.7273 1.7828 19.8757 2.14121 20.14 2.40547C20.4042 2.66972 20.7626 2.81818 21.1364 2.81818H26.7727C27.1464 2.81818 27.5049 2.96664 27.7691 3.23089C28.0334 3.49515 28.1818 3.85356 28.1818 4.22727V9.86364C28.1818 10.2374 28.3303 10.5958 28.5945 10.86C28.8588 11.1243 29.2172 11.2727 29.5909 11.2727C29.9646 11.2727 30.323 11.1243 30.5873 10.86C30.8515 10.5958 31 10.2374 31 9.86364V4.22727C31 3.10613 30.5546 2.03091 29.7619 1.23814C28.9691 0.445372 27.8939 0 26.7727 0ZM1.40909 11.2727C1.7828 11.2727 2.14121 11.1243 2.40547 10.86C2.66972 10.5958 2.81818 10.2374 2.81818 9.86364V4.22727C2.81818 3.85356 2.96664 3.49515 3.23089 3.23089C3.49515 2.96664 3.85356 2.81818 4.22727 2.81818H9.86364C10.2374 2.81818 10.5958 2.66972 10.86 2.40547C11.1243 2.14121 11.2727 1.7828 11.2727 1.40909C11.2727 1.03538 11.1243 0.676969 10.86 0.412713C10.5958 0.148457 10.2374 0 9.86364 0H4.22727C3.10613 0 2.03091 0.445372 1.23814 1.23814C0.445372 2.03091 0 3.10613 0 4.22727V9.86364C0 10.2374 0.148457 10.5958 0.412713 10.86C0.676969 11.1243 1.03538 11.2727 1.40909 11.2727ZM12.6818 5.63636H7.04545C6.67174 5.63636 6.31333 5.78482 6.04908 6.04908C5.78482 6.31333 5.63636 6.67174 5.63636 7.04545V12.6818C5.63636 13.0555 5.78482 13.4139 6.04908 13.6782C6.31333 13.9425 6.67174 14.0909 7.04545 14.0909H12.6818C13.0555 14.0909 13.4139 13.9425 13.6782 13.6782C13.9425 13.4139 14.0909 13.0555 14.0909 12.6818V7.04545C14.0909 6.67174 13.9425 6.31333 13.6782 6.04908C13.4139 5.78482 13.0555 5.63636 12.6818 5.63636ZM11.2727 11.2727H8.45455V8.45455H11.2727V11.2727ZM18.3182 14.0909H23.9545C24.3283 14.0909 24.6867 13.9425 24.9509 13.6782C25.2152 13.4139 25.3636 13.0555 25.3636 12.6818V7.04545C25.3636 6.67174 25.2152 6.31333 24.9509 6.04908C24.6867 5.78482 24.3283 5.63636 23.9545 5.63636H18.3182C17.9445 5.63636 17.5861 5.78482 17.3218 6.04908C17.0575 6.31333 16.9091 6.67174 16.9091 7.04545V12.6818C16.9091 13.0555 17.0575 13.4139 17.3218 13.6782C17.5861 13.9425 17.9445 14.0909 18.3182 14.0909ZM19.7273 8.45455H22.5455V11.2727H19.7273V8.45455ZM12.6818 16.9091H7.04545C6.67174 16.9091 6.31333 17.0575 6.04908 17.3218C5.78482 17.5861 5.63636 17.9445 5.63636 18.3182V23.9545C5.63636 24.3283 5.78482 24.6867 6.04908 24.9509C6.31333 25.2152 6.67174 25.3636 7.04545 25.3636H12.6818C13.0555 25.3636 13.4139 25.2152 13.6782 24.9509C13.9425 24.6867 14.0909 24.3283 14.0909 23.9545V18.3182C14.0909 17.9445 13.9425 17.5861 13.6782 17.3218C13.4139 17.0575 13.0555 16.9091 12.6818 16.9091ZM11.2727 22.5455H8.45455V19.7273H11.2727V22.5455ZM18.3182 21.1364C18.6919 21.1364 19.0503 20.9879 19.3146 20.7236C19.5788 20.4594 19.7273 20.101 19.7273 19.7273C20.101 19.7273 20.4594 19.5788 20.7236 19.3146C20.9879 19.0503 21.1364 18.6919 21.1364 18.3182C21.1364 17.9445 20.9879 17.5861 20.7236 17.3218C20.4594 17.0575 20.101 16.9091 19.7273 16.9091H18.3182C17.9445 16.9091 17.5861 17.0575 17.3218 17.3218C17.0575 17.5861 16.9091 17.9445 16.9091 18.3182V19.7273C16.9091 20.101 17.0575 20.4594 17.3218 20.7236C17.5861 20.9879 17.9445 21.1364 18.3182 21.1364ZM23.9545 16.9091C23.5808 16.9091 23.2224 17.0575 22.9582 17.3218C22.6939 17.5861 22.5455 17.9445 22.5455 18.3182V22.5455C22.1717 22.5455 21.8133 22.6939 21.5491 22.9582C21.2848 23.2224 21.1364 23.5808 21.1364 23.9545C21.1364 24.3283 21.2848 24.6867 21.5491 24.9509C21.8133 25.2152 22.1717 25.3636 22.5455 25.3636H23.9545C24.3283 25.3636 24.6867 25.2152 24.9509 24.9509C25.2152 24.6867 25.3636 24.3283 25.3636 23.9545V18.3182C25.3636 17.9445 25.2152 17.5861 24.9509 17.3218C24.6867 17.0575 24.3283 16.9091 23.9545 16.9091ZM18.3182 22.5455C18.0395 22.5455 17.7671 22.6281 17.5353 22.7829C17.3036 22.9378 17.123 23.1578 17.0164 23.4153C16.9097 23.6728 16.8818 23.9561 16.9362 24.2294C16.9905 24.5028 17.1247 24.7539 17.3218 24.9509C17.5189 25.148 17.7699 25.2822 18.0433 25.3366C18.3166 25.3909 18.5999 25.363 18.8574 25.2564C19.1149 25.1497 19.335 24.9691 19.4898 24.7374C19.6446 24.5057 19.7273 24.2332 19.7273 23.9545C19.7273 23.5808 19.5788 23.2224 19.3146 22.9582C19.0503 22.6939 18.6919 22.5455 18.3182 22.5455Z" fill="#161516"/>
</svg>
