<svg width="19" height="19" viewBox="0 0 19 19" fill="none" xmlns="http://www.w3.org/2000/svg">
<path d="M16.3195 3.27249C15.4901 2.43467 14.5022 1.77039 13.4133 1.31839C12.3245 0.866391 11.1565 0.635717 9.9776 0.639824C5.03797 0.639824 1.01207 4.66572 1.01207 9.60536C1.01207 11.1886 1.42823 12.7266 2.20627 14.0836L0.939697 18.7337L5.68935 17.4853C7.00116 18.2 8.47581 18.5799 9.9776 18.5799C14.9172 18.5799 18.9431 14.554 18.9431 9.6144C18.9431 7.21696 18.0113 4.96427 16.3195 3.27249ZM9.9776 17.06C8.63866 17.06 7.32685 16.6982 6.17788 16.0196L5.90648 15.8568L3.08383 16.5987L3.83472 13.8484L3.65378 13.5679C2.90989 12.38 2.5149 11.0069 2.51387 9.60536C2.51387 5.49804 5.86124 2.15067 9.96856 2.15067C11.9589 2.15067 13.8316 2.9287 15.2339 4.34003C15.9282 5.03118 16.4785 5.85328 16.8527 6.75866C17.227 7.66405 17.4179 8.63472 17.4142 9.6144C17.4323 13.7217 14.0849 17.06 9.9776 17.06ZM14.0668 11.4871C13.8407 11.3786 12.7369 10.8357 12.5379 10.7543C12.3298 10.6819 12.1851 10.6458 12.0313 10.8629C11.8775 11.0891 11.4523 11.5957 11.3256 11.7404C11.1989 11.8942 11.0632 11.9123 10.8371 11.7947C10.6109 11.6862 9.88714 11.4419 9.03672 10.6819C8.36725 10.0848 7.92395 9.35204 7.78824 9.12587C7.66158 8.89969 7.77015 8.78208 7.88776 8.66447C7.98727 8.56496 8.11393 8.40211 8.2225 8.27545C8.33106 8.1488 8.37629 8.04928 8.44867 7.90453C8.52105 7.75073 8.48486 7.62407 8.43058 7.51551C8.37629 7.40695 7.92395 6.30322 7.74301 5.85087C7.56207 5.41662 7.37208 5.4709 7.23638 5.46185H6.80212C6.64832 5.46185 6.4131 5.51613 6.20502 5.74231C6.00599 5.96848 5.42699 6.5113 5.42699 7.61503C5.42699 8.71876 6.23217 9.7863 6.34073 9.93105C6.44929 10.0848 7.92395 12.3466 10.1676 13.3146C10.7014 13.5498 11.1175 13.6855 11.4432 13.7851C11.977 13.9569 12.4655 13.9298 12.8545 13.8755C13.2888 13.8122 14.1844 13.3327 14.3654 12.808C14.5554 12.2833 14.5554 11.84 14.492 11.7404C14.4287 11.6409 14.293 11.5957 14.0668 11.4871Z" fill="#D4441C"/>
</svg>
